<svg id="Capa_1" data-name="Capa 1" xmlns="http://www.w3.org/2000/svg" viewBox="0 0 80 80"><defs><style>.cls-1{fill:#7bc6ca;}</style></defs><path class="cls-1" d="M62.23,51.09a1.23,1.23,0,0,0-1.74,0,13.44,13.44,0,0,1-9,3.33,13.67,13.67,0,0,1-9-3.33,1.23,1.23,0,0,0-1.74,0l-5.28,5.28v2.51a.36.36,0,0,0,.12.28.4.4,0,0,0,.57,0l5.53-5.53a16.26,16.26,0,0,0,8.55,3.21v2.49h2.47v-2.5a16.22,16.22,0,0,0,8.53-3.2l5.53,5.53a.41.41,0,0,0,.58,0,.4.4,0,0,0,.12-.28V56.37Z"/><path class="cls-1" d="M41.67,40.89a9.87,9.87,0,0,0,19.73,0V34.78L64.35,31s-9.24-6.12-12.83-6.12S38.62,31,38.62,31l3,3.76Zm17.26-6.15v.85a11.94,11.94,0,0,1-7.43,2.6,12.07,12.07,0,0,1-7.39-2.55v-.9ZM51.54,48.27a7.15,7.15,0,0,1-7.41-7.38V38.64a14.49,14.49,0,0,0,7.37,2,14.32,14.32,0,0,0,7.43-2.08v2.31A7.22,7.22,0,0,1,51.54,48.27Zm0-20.93c1.89,0,6.27,2.37,9.25,4.24l-1.5,1.93H43.78l-1.55-1.93C45.23,29.7,49.62,27.34,51.52,27.34Z"/><path class="cls-1" d="M49.44,32a.27.27,0,0,0,.27.27h1.77v0l2-1.95a.24.24,0,0,0,.07-.18.26.26,0,0,0-.26-.27H51.47v0l-1.95,1.94A.27.27,0,0,0,49.44,32Z"/><path class="cls-1" d="M61.71,55.76h0l-.13-.13H60.24a.17.17,0,0,0-.12.29l3.44,3.39h1.33A.17.17,0,0,0,65,59Z"/><path class="cls-1" d="M42.76,55.69H41.43L38,59.09a.17.17,0,0,0,.12.29h1.33L42.88,56A.17.17,0,0,0,42.76,55.69Z"/><path class="cls-1" d="M38.63,46.84a1.23,1.23,0,0,0-1.74,0,13.51,13.51,0,0,1-9,3.33,13.66,13.66,0,0,1-9-3.33,1.23,1.23,0,0,0-1.74,0l-5.28,5.27v2.52a.43.43,0,0,0,.11.28.41.41,0,0,0,.58,0l5.53-5.53a16.27,16.27,0,0,0,8.55,3.2v2.49h2.46V52.58a16.31,16.31,0,0,0,8.54-3.2l5.53,5.07c.16.16.77.26.58.46s.11-.18.11-.28V52.11Z"/><path class="cls-1" d="M18.06,36.63a9.65,9.65,0,0,0,9.88,9.85,9.63,9.63,0,0,0,9.85-9.85V30.52l3-3.78s-9.25-6.12-12.84-6.12S15,26.74,15,26.74l3,3.77Zm17.27-6.15v.85a11.87,11.87,0,0,1-7.43,2.61,12,12,0,0,1-7.39-2.55v-.91ZM27.94,44a7.15,7.15,0,0,1-7.41-7.39V34.38a14.41,14.41,0,0,0,14.8-.05v2.3A7.23,7.23,0,0,1,27.94,44Zm0-20.94c1.89,0,6.28,2.37,9.26,4.25l-1.51,1.92H20.17l-1.54-1.93C21.62,25.44,26,23.08,27.91,23.08Z"/><path class="cls-1" d="M25.84,27.71a.27.27,0,0,0,.27.27h1.77v0l2-1.95a.27.27,0,0,0-.19-.45H27.87v0l-1.95,2A.25.25,0,0,0,25.84,27.71Z"/><path class="cls-1" d="M19.16,51.44H17.83l-3.43,3.4a.17.17,0,0,0,.12.29h1.33l3.43-3.4A.16.16,0,0,0,19.16,51.44Z"/><path class="cls-1" d="M59.93,58.07H57.45l-1,.95a.21.21,0,0,0,0,.29.19.19,0,0,0,.13.06h2.49l1-1a.19.19,0,0,0,0-.28A.2.2,0,0,0,59.93,58.07Z"/></svg>